<?xml version="1.0" encoding="UTF-8"?>
<svg id="Layer_1" data-name="Layer 1" xmlns="http://www.w3.org/2000/svg" version="1.1" viewBox="0 0 300 300">
  <defs>
    <style>
      .cls-1 {
        fill: #231f20;
        stroke-width: 0px;
      }
    </style>
  </defs>
  <path class="cls-1" d="M283.94,149.45c-25.04-6.03-35.66-49.7-54.3-66.99-2.07-2.85-7.91-4.2-7.16-8.4,2.78-3,9.09,4.53,12.83,3.2,1.57-2.73-5.22-3.58-6.75-4.73-1.43-.72-2.75-1.67-4.22-2.31-3.26-.47-11.16-11.05-9.39-13.63,2.86.35,5.18,3.41,8.02,4.46,2.58,1.38,4.79,3.35,7.52,4.45,3.83,1.96,7.88,3.65,12.04,4.72,1.33.8,3.87-.41,1.87-1.76-1.35-.83-3.09-1.01-4.6-1.54-5.79-2.09-11.15-4.98-16.32-8.28-4.2-3-16.74-9.06-7.5-13.58.77-.15,1.5.15,2.18.64,5.99,5.3,14.17,9.42,21.98,11.96,3.78,1.57,7.96.62,11.8,1.61,3.86,1.14,14.27,16.24,17.02,12.55,1.06-1.48-.16-3.3-1.32-4.37-13.29-12-25.9-25.93-41.75-34.44-9.04-6.3-14.91-4.64-23.7.7-20.51.27-18.97-31.21-36.49-25.85-7.96,3.05-10.28,11.87-16.29,17.37-5.25,4.5-5.61-17.09-21.89-14.7-16.09,1.24-18.1,20.92-28.34,30.14-4.07,3.54-8.46,6.97-10.56,12.15-6.56,11.17-8.14,27.86-22.86,31.17-1.9.94-4.39.72-6.27,1.64-.94.63-1.17,2.11-.45,3.01,1.85,1.85,4.84.15,7.08.02,19.2-3.79,19.6-26,30.27-39.12,3.16-3.71,7.06-6.66,9.94-10.62,3.89-4.62,6.21-10.23,9.38-15.32,2.27-2.75,5.04-8.33,9.12-7.26,2.21,2.66-2.47,9.3-2.19,12.83-1.45,11.23,5.45,15.87,5.14,26.6,3.06,6.37-4.15,8.41-8.96,10.23-2.84,1.12-5.89,3.77-5.46,7.1,3.13,10.25,14.51,15.08.08,23.35-1.37.36-3.73,2.91-.99,2.98,3.59-1.52,7.62-4.13,9.51-7.62,1.74-6.41,5.66-.06,8.97,1.49,6.81,1-3.05-4.93-4.28-6.02-4.08-3.93-8.16-8.56-10.74-13.63-1.18-3.43,3.93-6.54,6.43-3.94,7.23,9.27,15.69,17.28,25.7,23.67,1.89.96,9.64,7.47,11.23,5.93.72-.92-.64-2.07-1.38-2.58-10.38-6.01-20.59-12.99-28.37-22.25-3.2-3.14-9.53-8.96-.87-9.63,8.68,7.11,16.25,16.13,26.81,21.56,1,.98,12.29,7.28,9.19,2.26-12.43-6.17-25.19-14.32-33.07-25.85-1.56-2.4-.82-5.83-.83-8.54.19-2.29,1.48-1.82,2.86-.28,8.02,9.36,16.92,17.69,27.37,24.45,8.35,6.34,18.51,9.9,28.59,12.4,4.68,1.48-1.99,5.94-3.02,8.05-5.42,8.44-15.8,13.6-26.03,13.16-2.58,1.08-1.41,4.07,1.22,4.03,25.51,1.58,32.22-23.87,46.21-37.73,3.43-1.22,12.25-.65,8.12,4.8-1.12,2.44-2.3,4.77-2.95,7.41-1.16,4.35,3.11,5.62,3.8,9.18.62,6.37-8.5,14.08-12.42,18.41-3.87,3.99-2.47,4.78-2.47,9.64.09,5.14-.16,10.3,0,15.44,1.18,4.23,2.45,10.6-2.78,12.64-3.25,1.42-4.25-2.68-7.89-2.93-8.33-1.41-9.32,5.16-15.26,3.67-36.53-8.43-30.79-63.21-49.62-32.43-9.05,8.3-12.29,2.31-16.43,16.69-1.91,4.09-4.32,8.72-8.66,10.62-.85.31-1.74.36-2.62.51-2.33.08-5.5,3.13-2.4,4.68,11.47,1.66,17.55-12.11,20.59-21.15,2.81-3.03,7.78-3.36,10.6-6.52,2.23-1.57,3.53-3.96,5.38-5.84,2.8-1.71-1.08,7.78,2.31,10.48,7.36,7.83-2.44,5.32-6.7,8.97-2.74,1.81-4.55,4.67-3.79,8.04-.58,6.99,12.37,10.99,5.4,17.22-1.82,1.49-3.06,3.9-5.41,4.39-6.38-3.28-15.16-5.74-22.04-.88-9.78,7.02-11.99,20.22-20.63,28.12-9.22,7.06-18.39,15.52-29.58,19.35-13.73,3.5-19.28,6.17-28.54,17.37-3,3.14-6.63,5.58-10.79,6.88-1.47.49-3.07-.24-3.92,1.29-.92,5.61,8.07,2.27,10.52.63,6.25-3.38,10.5-9.55,15.83-14.15,4.74-4.9,11.67-5.22,17.75-7.41,5.87-2.37,11.76-5.14,16.84-8.96,11.25-7.64,21.34-16.45,26.71-29.26,2.41-3.98,5.18-8.53,9.48-10.61,4.02-1.19,2.78,2.85,1.66,4.95-7.54,18.79,4.53,20.91,3.63,37.57-.03,1.83-.26,2.81-1.94,3.64-3.89,2.1-10.42,4.14-12.88,7.73-1.85,6.68,7.07,10.77,6.93,17.34.27,5.42-6.11,7.66-8.85,10.89.33,4.14,10.41-5.86,10.86-7.6,2.24-4.92,5.58,1.48,8.4,2.44,7.29,1.44-5.38-6.95-6.43-8.09-2.5-3.03-8.96-9.65-8.69-13.49,2.06-4.06,5.76-3.54,7.98.08,3.47,4.95,7.89,9.08,12.2,13.3,4.51,3.69,9.07,7.3,13.99,10.42,6.08,2.28,3.93,5.71-.71,7.98-2.02.74-4.53.4-5.96,2.34-1.77,4.44,5.43,3.33,7.52,1.84,7.87-3.73,10.69-12.6,13.99-20.06,1.57-2.29,4.87-2.19,6.95-3.89,7.5-3.37,10.84-16.37,9.77-1.44-.48,3.63,7.7,7.48,2.24,9.69-9.93,1.11-15.43,9.56-8.24,17.6,3.95,3.5,5.67,7.08,1.62,11.5-1.9,4.38-11.01,9.61-11.08,13.26,3.98,1.26,8.12-9.76,12.81-7.88,1.04.5,3.39,2,3.69.25-.19-1.15-1.56-1.77-2.14-2.71-1.11-1.41-.2-3.76,1.38-4.37,3.31.02,8.44,6.66,12.87,8.24,1.12.63,2.18,1.42,3.39,1.89,1.59.63,3.76,0,1.58-1.7-5.15-3.3-11.41-5.93-15.27-10.92-2.04-6.17-13.04-10.97-8.69-18.23,2.15-2.18,3.99,1.07,5.05,2.72,2.7,3.37,5.54,6.68,8.63,9.7,1.74,2.13,22.88,17.69,21.44,11.78-9.55-4.77-18.46-10.96-25.06-19.49-2.24-2.22-8.31-8.16-2-9.16,3.75-1.47,5.34,1.34,7.02,4.14,3.14,3.87,6.61,7.43,10.49,10.56.97,1.43,7.19,4.71,5.37,1.16-4.76-3.27-9.59-6.96-12.9-11.88-2.85-2.99-3.73-6.91-5.79-10.32-1.46-2.09-4.02-4.39-3.9-7.17.27-1.73.76-7.74,3.01-3.73,1.43,4.64,4.32,8.54,6.45,12.86,6.72,10.59,15.37,19.33,28.05,22.71,2.19.55,4.48,1.85,6.7.88,1.9-.98,1.24-3.06-.43-3.95-11.24-2.15-21.47-8.24-27.68-18.12-1.44-1.99-4.6-5.4-4.19-8.04.18-.79.85-1.22,1.72-1.58,3.25-1.5,6.34-3.26,9.89-3.89,8.44-5.35,14.41-14.36,21.2-21.67.5-.74,1.78-2.82,2.54-1.27,10.35,24.5-11.21,9.19-1.1,27.49,1.82,5.69-4.79,9.86-8.57,12.95-1.59,2.22,1.6,2.25,2.72.86,11.34-7.4,3.18-12.47,18.69-6.09,1.97.67,13.14,4.45,9.61.27-6.49-2.01-13.59-3.32-19.21-7.4-1.55-2.21-3.43-5.05-3.3-7.86.42-2.47,3.72-2.67,5.31-1.24,10.54,7.83,25.83,11.43,39.15,11.01,1.6.42,3.83.88,4.25-1.23.2-.99-.39-1.96-1.25-2.42-13.09-5.89-21.63-18.41-31.08-28.74-3.94-5.05-10.25-10.58-16.57-5.82-3.11,2.4-3.88,6.72-6.55,9.48-5.56,4.95-9.85,11.13-15.19,16.21-3.99,2.24-8.62,3.13-12.75,5.18-7.58,2.25-3.85-17.12-17.53-8.32-2.83.55-5.21-3.81-6.85-5.6-4.57-4.57-7.87-10.11-11.08-15.69-1.36-2.53-5.31-6.83-.91-8.38,11.31-5.51,20.02-15.12,29.84-22.8,2.99-2.26,5.41-5.26,7.4-8.46,1.67-2.27,2.15-5.6,4.61-7.12,2.32-.56,1.03,2.74.8,3.93-.54,2.74.22,5.76.6,8.4-2.57,5.5,4.41,7.82.54,10.88-4.43,2.33-8.82,4.72-4.73,10,.83,1.25,1.91,2.41,2.26,3.84,1.25,2.3-4.86,15.82-1.43,14.95,1.32-.91,1.39-3.13,2.05-4.57,1.97-6.27,6.3,3.26,10.19,2.52,3.1-1.42-8.86-6.54-8.37-9.97.18-4.52-1.68-6.06-3.62-9.73.45-8.59,11.23,8.05,14.32,7.55,3.86-2.03-10.56-8.52-8.53-12.54,2.45-3.74,1.08-5.83-.42-9.54-.5-2.29,1.52-3.56,2.83-1.24,1.79,2.82,3.39,5.79,5.67,8.28,2.81,3.82,5.64,7.64,9.33,10.59,1.27,1.38,11.42,7.8,9.38,2.88-3.91-1.89-7.88-3.94-10.76-7.35-2.8-3.62-6.1-6.89-8.52-10.78-2.79-5.94-10.68-12.24-6.35-19.12,7.68-4.83,15.29,32.9,39.63,34.3,5.19-.8,1.58-5.46-2.1-5.14-10.69-2.4-17.79-11.68-22.84-20.89-3.31-4.39-6.75-8.89.52-11.37,1.31-.22,2.17,1.2,3.05,1.99,3.74,3.93,8.08,7.15,12.58,10.17,6.34,4.49,7.41.56-.52-2.99-4.68-3.68-13.56-9.31-13.84-15.64-.26-1.65-.38-3.49,1.89-2.36,6.82,5.05,13.65,10.24,21.3,13.99,1.52,1.68,27.03,13.49,21.69,7.02-10-3.23-19.49-7.92-28.33-13.54-4.32-3.42-9.29-6.12-13.48-9.71-1.77-1.3-4.13-2.35-4.64-4.71-.28-1.41-.48-3.57.83-4.36,1.01-.5,2.32.42,3.11,1.11,3.36,3.03,7.47,5.25,10.97,8.14,10.07,6.77,21.15,12.6,33.03,15.36,1.62.19,3.16.96,4.8.87,1.77-.05,2-1.64.23-2.1-4.97-1.01-9.91-2.53-14.68-4.3-9.17-4.25-18.39-8.47-26.05-14.94-3.73-3.4-11-5.81-11.62-11.17-.86-2.99-1.79-8.47,3.05-4.96,10.33,7.86,21.17,14.39,33.33,19.62,2.82,1.47,16.9,7.52,18.27,4.83-.36-2.02-3.5-1.9-5.07-2.51-10.48-2.88-20.37-7.76-29.5-13.55-5.41-3.37-12.47-7.09-16.92-11.43-1.96-2.11,1.64-5.03,3.57-5.55,1.87-.3,3.41,1.27,4.93,2.1,3.9,2.07,7.61,4.49,11.4,6.64,9.34,4.22,18.17,9.73,27.99,12.82,5.7.68,7.46,5.32,10.96,8.97,2.46,2.91,17.13,11.01,16.94,3.99ZM246.41,235.38c1.45,1.23,7.9,6.16,2.13,4.96-4.71.14-9.09-1.32-13.59-2.45-2.99-1.64-6.45-2.15-9.22-4.16-2.19-1.38-6.56-2.3-6.9-5.33,1.44-2.52.22-7.47,2.84-5.89,7.41,5.62,16.22,9.3,24.73,12.86ZM218.08,209.53c3.58-5.07,13.02,10.94,16.02,13.35,15.5,14.85-13.77-2.5-16.08-6.07-.68-2.05-.65-5.16.06-7.29ZM114.51,173.04c8.37-.58,12.25,11.56,15.87,17.44,1.88,6.2,6.84,11.82,7.92,17.67-8.31-5.87-13.99-17.11-20.71-25.43-1.55-2.49-7.42-7.36-3.08-9.68ZM138.64,253.76c-11.09-5.31-20.63-13.95-28.09-23.65-3.18-2.58-4.18-6.69,1-7.22.88-.08,1.66.32,2.25.98,5.61,7.29,12.41,13.27,19.73,18.8,2.42,2.09,7.94,2.26,8.36,5.92.1,1.5-1.58,5.39-3.25,5.18ZM146.71,240.35c-1.34,1.89-2.92,5.38-5.69,3.85-8.92-4.78-16.92-11.23-23.28-19.02-1.18-1.33-2.79-2.63-2.96-4.52.61-1.96-3.07-8.91.62-8.12,2.51,2.81,4.83,5.92,7.53,8.6,6.01,6.8,14.63,13.06,23.12,17.21.66.45.94,1.27.65,2.01ZM152.79,238.06c-19.48-5.98-40.24-26.54-44.91-46.84-.36-2.49,2.25-2.66,3.14-.66,4.76,8.62,11.15,16.33,17.98,23.39,6.47,7.99,15.5,14.37,24.73,19.35,3.14,1.29,1.68,4-.93,4.76ZM142.44,217.21c1.51.7,15.76,13.39,12.12,13.6-5.06-1.2-9.08-6.04-13.51-8.67-5.52-3.94-9.57-9.53-14.6-14.04-3.93-5.63-18.69-21.21-16.36-27.5.76-1.62,1.68-1.92,2.93-.41,8.77,13.07,17.93,26.17,29.42,37.03ZM164.57,176.13c-7.77,6.32-15.39,13.98-24.41,18.45-3.11,1.65-3.99-1.85-5.09-3.98-1.12-2.03-2.09-4.17-3.15-6.28-1.24-2.77-3.2-4.92-4.68-7.52-.97-2.05.71-3.98,2.81-2.95,1.73.7,3.54,2.66,4.86,1.75.65-.61-.02-1.6-.63-2.01-2.78-1.22-3.16-4.53-.3-5.93.98-.51,1.9.31,2.55,1,3.91,3.82,9.24,6.62,14.15,9.19.73.3,2.63.59,2.65-.46-1.77-2.87-6.22-3.65-8.84-5.55-2.55-1.68-5.21-3.6-7.18-5.89-1.53-1.79-2.07-4.24-3.82-5.87-2.27-2.4-4.92-4.61-6.14-7.78-1.32-2.23-.17-7.71,3.15-6.28,1.91,1.76,3.08,4.48,4.86,6.37,5.68,6.16,11.51,12.51,19.26,16.45,1.78.48,8.8,6.54,9.07,2.87-2.07-3.08-8.76-4.17-11.55-7.07-6.42-4.97-12.83-10.46-17.52-17.14-1.69-1.97-2.81-4.39.66-4.96,1.44-.51,3.1-.97,4.57-.35,1.77,1.03,2.19,3.39,3.55,4.84,4.29,4.8,8.82,10.16,14.73,12.91,3.7-.16-.13-2.79-1.5-3.5-6.51-5.02-13.28-11.17-15.47-19.37-3.27-4.16-5.1-5.46-4.36-11.52.73-11.44,10.59,29.97,37.49,35.14,7.22,1.82-7.09,13.54-9.71,15.43ZM213.6,34.12c8.94-1.55,26.52,14.66,33.36,20.6,3.26,4.61-10.74-.47-11.97-1.34-6-2.36-23.4-12.28-21.39-19.26ZM168.66,16.51c2.62-11.09,8.43,2.54,10.64,6.66,1.96,2.54,3.99,5.06,5.94,7.62,1.38,1.4,3.09,2.68,4.64,3.82,1.69,1.58,8.27,2.44,6.34,5.52-3.09,3.48-6.07,9.03-10.57,3.92-4.72-4-19.45-21.46-16.98-27.54ZM168.82,28.21c1.99-.81,2.41,2.22,3.31,3.37,4,6.33,9.14,12.85,15.36,16.73,1.49,3.05-2.75,5.06-4.61,6.74-1.65,2.72-13.37,9.8-16.37,7.03-2.31-3.09,1.54-7.13-.02-11.68-.93-2.33-4.25-4.71-3.4-7.4,2.97-4.95,12.33,12.11,15.44,9.19-.72-5.19-14.55-8.46-8.28-14.84,2.56-3.16-4.19-6.44-1.45-9.12ZM154.81,26.22c1.1-1.64,11.75-17.76,11.65-11.24-.92,2.8-.7,5.87-.62,8.79.15,2.21.19,4.4.14,6.61.16,2.84,4.07,6.37-.15,8.16-14.23,5.86,3.71,11.39-2.27,17.34-2.31.77-3.67-4.22-4.53-5.8-2.29-3.54-4.49-7.11-5.9-11.2-3.63-7.85-5.28-6.32,1.68-12.67ZM130.07,15.68c4.19-4.34,12.54,11.26,13.73,14.54.27,1.58,10.49,17.21,4.95,14.02-2.97-3.88-6.41-7.53-9.11-11.62-2.22-5.57-10.35-10.72-9.58-16.94ZM127.02,22.29c1.5-2.21,3.23.56,4.01,1.97,9.25,15.75,23.14,27.89,33.43,42.68,1.31,5.35-9.99-5.62-11.14-6.45-5.59-4.64-29.86-31.7-26.3-38.2ZM188.49,87.38c-1.31,1.62-3.47-.44-5.15-.37-5.14-1.45-9.87-3.79-14.56-6.31-12.85-7.24-23.99-17.02-33.5-28.11-3.99-5.03-8.53-9.87-10.43-16.21-.73-1.71-.32-8.16,2.15-4.6,11.45,17.81,24.93,34.38,44.61,44.03,4.89,3.31,9.47,6.97,14.8,9.68.7.46,2.44.95,2.08,1.87ZM190.52,88.09c-.18.31-.95.2-.89-.22.12-.46,1.1-.25.89.22ZM216.39,74.18c-2.11-.02-3.99-1.02-6.07-1.23-4.47.79-7.91,4.15-10.52,7.65-.87,1.37-1.6,3.2-3.38,3.51-9.54-1.21-17.86-8.29-24.28-14.91-1.49-2.3.81-3.54,2.78-4.03,2.73-1.48,5.71-2.57,8.28-4.26,9.33-6.95,14.86-21.52,26.05-25.51,2.45.84,3.8,3.74,4.04,6.16.42,3.76-5.11,5.92-4.07,9.72,1.91,6.4,5.03,11.84,8,17.45,2.73,1.82,4.37,7.72-.83,5.43ZM220.41,81.67c3.13-1.91,25.85,26.76,16.13,21.86-4.4-2.87-9.07-5.38-12.81-9.11-5.26-3.83-10.89-7.44-3.32-12.75ZM216.11,94.02c-.76-2.05,1.17-2.44,2.32-.98,6.44,5.67,13.82,11.28,21.68,14.95,1.09.27,2.04.18,2.72,1.09,5.88,8.04,7.79,13.75-3.78,5.91-6.09-2.96-11.53-6.94-17.54-10.13-5.23-3.12.01-4.74-5.4-10.85ZM256.49,133.63c-1.48,2.11-46.25-20.61-42.28-22.57,3.32-8.1,6.74-4.35,12.31-.59,7.09,4.67,14.54,8.92,22.33,12.26,1.29.6,2.64,1.22,3.43,2.42,1.17,2.18,4.53,6.19,4.22,8.48Z"/>
</svg>